{
	"asset":{
		"generator":"Khronos glTF Blender I/O v4.2.60",
		"version":"2.0"
	},
	"scene":0,
	"scenes":[
		{
			"name":"Scene",
			"nodes":[
				14,
				15,
				16
			]
		}
	],
	"nodes":[
		{
			"name":"Hand.l",
			"rotation":[
				0.002728654770180583,
				1.1806871924591178e-07,
				0.0198013037443161,
				0.9998002648353577
			],
			"translation":[
				3.725290298461914e-08,
				0.6534104943275452,
				0
			]
		},
		{
			"children":[
				0
			],
			"name":"Arm.l",
			"rotation":[
				-0.0035888096317648888,
				3.447084750973772e-08,
				-0.02604309469461441,
				0.9996544122695923
			],
			"scale":[
				0.9999999403953552,
				0.9999998807907104,
				0.9999999403953552
			],
			"translation":[
				1.9744038581848145e-07,
				0.9041436910629272,
				-2.9802322387695312e-08
			]
		},
		{
			"children":[
				1
			],
			"name":"Shoulder.l",
			"rotation":[
				-0.15077176690101624,
				2.567792023455695e-08,
				-0.6716251373291016,
				0.7253878712654114
			],
			"scale":[
				0.9999999403953552,
				1,
				0.9999999403953552
			],
			"translation":[
				0,
				0.5367379188537598,
				0
			]
		},
		{
			"name":"Lowerleg.l",
			"rotation":[
				-0.004710203967988491,
				-2.4505668605456776e-08,
				1.1330366644912715e-09,
				0.9999889135360718
			],
			"scale":[
				1,
				0.9999999403953552,
				1
			],
			"translation":[
				0,
				0.6756545305252075,
				-3.352757715902044e-08
			]
		},
		{
			"children":[
				3
			],
			"name":"Upperleg.l",
			"rotation":[
				-0.49955111742019653,
				-3.059289355178407e-08,
				9.203056094975182e-08,
				0.8662844300270081
			],
			"scale":[
				1,
				0.9999998807907104,
				0.9999998807907104
			],
			"translation":[
				0,
				0.4699874222278595,
				-4.470348358154297e-08
			]
		},
		{
			"children":[
				4
			],
			"name":"Hip.l",
			"rotation":[
				-0.6054210662841797,
				-0.3653291165828705,
				-0.6054209470748901,
				0.36532917618751526
			],
			"scale":[
				0.9999998807907104,
				0.9999998211860657,
				0.9999999403953552
			]
		},
		{
			"name":"Hand.r",
			"rotation":[
				0.002728654770180583,
				-1.1806871924591178e-07,
				-0.0198013037443161,
				0.9998002648353577
			],
			"translation":[
				-3.725290298461914e-08,
				0.6534104943275452,
				0
			]
		},
		{
			"children":[
				6
			],
			"name":"Arm.r",
			"rotation":[
				-0.0035888096317648888,
				-3.447084750973772e-08,
				0.02604309469461441,
				0.9996544122695923
			],
			"scale":[
				0.9999999403953552,
				0.9999998807907104,
				0.9999999403953552
			],
			"translation":[
				-1.9744038581848145e-07,
				0.9041436910629272,
				-2.9802322387695312e-08
			]
		},
		{
			"children":[
				7
			],
			"name":"Shoulder.r",
			"rotation":[
				-0.15077176690101624,
				-2.567792023455695e-08,
				0.6716251373291016,
				0.7253878712654114
			],
			"scale":[
				0.9999999403953552,
				1,
				0.9999999403953552
			],
			"translation":[
				0,
				0.5367379188537598,
				0
			]
		},
		{
			"name":"Lowerleg.r",
			"rotation":[
				-0.004710203967988491,
				2.4505668605456776e-08,
				-1.1330366644912715e-09,
				0.9999889135360718
			],
			"scale":[
				1,
				0.9999999403953552,
				1
			],
			"translation":[
				0,
				0.6756545305252075,
				-3.352757715902044e-08
			]
		},
		{
			"children":[
				9
			],
			"name":"Upperleg.r",
			"rotation":[
				-0.49955111742019653,
				3.059289355178407e-08,
				-9.203056094975182e-08,
				0.8662844300270081
			],
			"scale":[
				1,
				0.9999998807907104,
				0.9999998807907104
			],
			"translation":[
				0,
				0.4699874222278595,
				-4.470348358154297e-08
			]
		},
		{
			"children":[
				10
			],
			"name":"Hip.r",
			"rotation":[
				-0.6054210662841797,
				0.3653291165828705,
				0.6054209470748901,
				0.36532917618751526
			],
			"scale":[
				0.9999998807907104,
				0.9999998211860657,
				0.9999999403953552
			]
		},
		{
			"children":[
				2,
				5,
				8,
				11
			],
			"name":"Spine",
			"translation":[
				0,
				1.8211159706115723,
				0
			]
		},
		{
			"mesh":0,
			"name":"Cube.002",
			"skin":0
		},
		{
			"children":[
				13,
				12
			],
			"name":"Armature"
		},
		{
			"mesh":1,
			"name":"Sphere"
		},
		{
			"mesh":2,
			"name":"Sphere.001"
		}
	],
	"animations":[
		{
			"channels":[
				{
					"sampler":0,
					"target":{
						"node":12,
						"path":"translation"
					}
				},
				{
					"sampler":1,
					"target":{
						"node":12,
						"path":"rotation"
					}
				},
				{
					"sampler":2,
					"target":{
						"node":12,
						"path":"scale"
					}
				},
				{
					"sampler":3,
					"target":{
						"node":2,
						"path":"translation"
					}
				},
				{
					"sampler":4,
					"target":{
						"node":2,
						"path":"rotation"
					}
				},
				{
					"sampler":5,
					"target":{
						"node":2,
						"path":"scale"
					}
				},
				{
					"sampler":6,
					"target":{
						"node":1,
						"path":"translation"
					}
				},
				{
					"sampler":7,
					"target":{
						"node":1,
						"path":"rotation"
					}
				},
				{
					"sampler":8,
					"target":{
						"node":1,
						"path":"scale"
					}
				},
				{
					"sampler":9,
					"target":{
						"node":0,
						"path":"translation"
					}
				},
				{
					"sampler":10,
					"target":{
						"node":0,
						"path":"rotation"
					}
				},
				{
					"sampler":11,
					"target":{
						"node":0,
						"path":"scale"
					}
				},
				{
					"sampler":12,
					"target":{
						"node":5,
						"path":"translation"
					}
				},
				{
					"sampler":13,
					"target":{
						"node":5,
						"path":"rotation"
					}
				},
				{
					"sampler":14,
					"target":{
						"node":5,
						"path":"scale"
					}
				},
				{
					"sampler":15,
					"target":{
						"node":4,
						"path":"translation"
					}
				},
				{
					"sampler":16,
					"target":{
						"node":4,
						"path":"rotation"
					}
				},
				{
					"sampler":17,
					"target":{
						"node":4,
						"path":"scale"
					}
				},
				{
					"sampler":18,
					"target":{
						"node":3,
						"path":"translation"
					}
				},
				{
					"sampler":19,
					"target":{
						"node":3,
						"path":"rotation"
					}
				},
				{
					"sampler":20,
					"target":{
						"node":3,
						"path":"scale"
					}
				},
				{
					"sampler":21,
					"target":{
						"node":8,
						"path":"translation"
					}
				},
				{
					"sampler":22,
					"target":{
						"node":8,
						"path":"rotation"
					}
				},
				{
					"sampler":23,
					"target":{
						"node":8,
						"path":"scale"
					}
				},
				{
					"sampler":24,
					"target":{
						"node":7,
						"path":"translation"
					}
				},
				{
					"sampler":25,
					"target":{
						"node":7,
						"path":"rotation"
					}
				},
				{
					"sampler":26,
					"target":{
						"node":7,
						"path":"scale"
					}
				},
				{
					"sampler":27,
					"target":{
						"node":6,
						"path":"translation"
					}
				},
				{
					"sampler":28,
					"target":{
						"node":6,
						"path":"rotation"
					}
				},
				{
					"sampler":29,
					"target":{
						"node":6,
						"path":"scale"
					}
				},
				{
					"sampler":30,
					"target":{
						"node":11,
						"path":"translation"
					}
				},
				{
					"sampler":31,
					"target":{
						"node":11,
						"path":"rotation"
					}
				},
				{
					"sampler":32,
					"target":{
						"node":11,
						"path":"scale"
					}
				},
				{
					"sampler":33,
					"target":{
						"node":10,
						"path":"translation"
					}
				},
				{
					"sampler":34,
					"target":{
						"node":10,
						"path":"rotation"
					}
				},
				{
					"sampler":35,
					"target":{
						"node":10,
						"path":"scale"
					}
				},
				{
					"sampler":36,
					"target":{
						"node":9,
						"path":"translation"
					}
				},
				{
					"sampler":37,
					"target":{
						"node":9,
						"path":"rotation"
					}
				},
				{
					"sampler":38,
					"target":{
						"node":9,
						"path":"scale"
					}
				}
			],
			"name":"ArmatureAction",
			"samplers":[
				{
					"input":15,
					"interpolation":"LINEAR",
					"output":16
				},
				{
					"input":17,
					"interpolation":"STEP",
					"output":18
				},
				{
					"input":17,
					"interpolation":"STEP",
					"output":19
				},
				{
					"input":17,
					"interpolation":"STEP",
					"output":20
				},
				{
					"input":17,
					"interpolation":"STEP",
					"output":21
				},
				{
					"input":17,
					"interpolation":"STEP",
					"output":22
				},
				{
					"input":17,
					"interpolation":"STEP",
					"output":23
				},
				{
					"input":15,
					"interpolation":"LINEAR",
					"output":24
				},
				{
					"input":17,
					"interpolation":"STEP",
					"output":25
				},
				{
					"input":17,
					"interpolation":"STEP",
					"output":26
				},
				{
					"input":15,
					"interpolation":"LINEAR",
					"output":27
				},
				{
					"input":17,
					"interpolation":"STEP",
					"output":28
				},
				{
					"input":17,
					"interpolation":"STEP",
					"output":29
				},
				{
					"input":17,
					"interpolation":"STEP",
					"output":30
				},
				{
					"input":17,
					"interpolation":"STEP",
					"output":31
				},
				{
					"input":17,
					"interpolation":"STEP",
					"output":32
				},
				{
					"input":15,
					"interpolation":"LINEAR",
					"output":33
				},
				{
					"input":17,
					"interpolation":"STEP",
					"output":34
				},
				{
					"input":17,
					"interpolation":"STEP",
					"output":35
				},
				{
					"input":15,
					"interpolation":"LINEAR",
					"output":36
				},
				{
					"input":17,
					"interpolation":"STEP",
					"output":37
				},
				{
					"input":17,
					"interpolation":"STEP",
					"output":38
				},
				{
					"input":17,
					"interpolation":"STEP",
					"output":39
				},
				{
					"input":17,
					"interpolation":"STEP",
					"output":40
				},
				{
					"input":17,
					"interpolation":"STEP",
					"output":41
				},
				{
					"input":15,
					"interpolation":"LINEAR",
					"output":42
				},
				{
					"input":17,
					"interpolation":"STEP",
					"output":43
				},
				{
					"input":17,
					"interpolation":"STEP",
					"output":44
				},
				{
					"input":15,
					"interpolation":"LINEAR",
					"output":45
				},
				{
					"input":17,
					"interpolation":"STEP",
					"output":46
				},
				{
					"input":17,
					"interpolation":"STEP",
					"output":47
				},
				{
					"input":17,
					"interpolation":"STEP",
					"output":48
				},
				{
					"input":17,
					"interpolation":"STEP",
					"output":49
				},
				{
					"input":17,
					"interpolation":"STEP",
					"output":50
				},
				{
					"input":15,
					"interpolation":"LINEAR",
					"output":51
				},
				{
					"input":17,
					"interpolation":"STEP",
					"output":52
				},
				{
					"input":17,
					"interpolation":"STEP",
					"output":53
				},
				{
					"input":15,
					"interpolation":"LINEAR",
					"output":54
				},
				{
					"input":17,
					"interpolation":"STEP",
					"output":55
				}
			]
		}
	],
	"materials":[
		{
			"doubleSided":true,
			"name":"Material",
			"pbrMetallicRoughness":{
				"baseColorFactor":[
					0.8012436628341675,
					0.46257999539375305,
					0.11339668184518814,
					1
				],
				"roughnessFactor":0.5
			}
		}
	],
	"meshes":[
		{
			"name":"Cube.006",
			"primitives":[
				{
					"attributes":{
						"POSITION":0,
						"NORMAL":1,
						"TEXCOORD_0":2,
						"JOINTS_0":3,
						"WEIGHTS_0":4
					},
					"indices":5,
					"material":0
				}
			]
		},
		{
			"name":"Sphere",
			"primitives":[
				{
					"attributes":{
						"POSITION":7,
						"NORMAL":8,
						"TEXCOORD_0":9
					},
					"indices":10
				}
			]
		},
		{
			"name":"Sphere.001",
			"primitives":[
				{
					"attributes":{
						"POSITION":11,
						"NORMAL":12,
						"TEXCOORD_0":13
					},
					"indices":14
				}
			]
		}
	],
	"skins":[
		{
			"inverseBindMatrices":6,
			"joints":[
				12,
				2,
				1,
				0,
				5,
				4,
				3,
				8,
				7,
				6,
				11,
				10,
				9
			],
			"name":"Armature"
		}
	],
	"accessors":[
		{
			"bufferView":0,
			"componentType":5126,
			"count":464,
			"max":[
				2.236945390701294,
				3.5,
				0.9999999403953552
			],
			"min":[
				-2.236945390701294,
				0.12090050429105759,
				-0.9999999403953552
			],
			"type":"VEC3"
		},
		{
			"bufferView":1,
			"componentType":5126,
			"count":464,
			"type":"VEC3"
		},
		{
			"bufferView":2,
			"componentType":5126,
			"count":464,
			"type":"VEC2"
		},
		{
			"bufferView":3,
			"componentType":5121,
			"count":464,
			"type":"VEC4"
		},
		{
			"bufferView":4,
			"componentType":5126,
			"count":464,
			"type":"VEC4"
		},
		{
			"bufferView":5,
			"componentType":5123,
			"count":1176,
			"type":"SCALAR"
		},
		{
			"bufferView":6,
			"componentType":5126,
			"count":13,
			"type":"MAT4"
		},
		{
			"bufferView":7,
			"componentType":5126,
			"count":1984,
			"max":[
				0.6378650069236755,
				3.0578651428222656,
				1.0978648662567139
			],
			"min":[
				0.2821350693702698,
				2.7021350860595703,
				0.7421348690986633
			],
			"type":"VEC3"
		},
		{
			"bufferView":8,
			"componentType":5126,
			"count":1984,
			"type":"VEC3"
		},
		{
			"bufferView":9,
			"componentType":5126,
			"count":1984,
			"type":"VEC2"
		},
		{
			"bufferView":10,
			"componentType":5123,
			"count":2880,
			"type":"SCALAR"
		},
		{
			"bufferView":11,
			"componentType":5126,
			"count":1984,
			"max":[
				-0.17354685068130493,
				3.0578675270080566,
				1.0978649854660034
			],
			"min":[
				-0.5292767882347107,
				2.7021374702453613,
				0.7421349287033081
			],
			"type":"VEC3"
		},
		{
			"bufferView":12,
			"componentType":5126,
			"count":1984,
			"type":"VEC3"
		},
		{
			"bufferView":13,
			"componentType":5126,
			"count":1984,
			"type":"VEC2"
		},
		{
			"bufferView":14,
			"componentType":5123,
			"count":2880,
			"type":"SCALAR"
		},
		{
			"bufferView":15,
			"componentType":5126,
			"count":15,
			"max":[
				0.6666666666666666
			],
			"min":[
				0.08333333333333333
			],
			"type":"SCALAR"
		},
		{
			"bufferView":16,
			"componentType":5126,
			"count":15,
			"type":"VEC3"
		},
		{
			"bufferView":17,
			"componentType":5126,
			"count":2,
			"max":[
				0.6666666666666666
			],
			"min":[
				0.08333333333333333
			],
			"type":"SCALAR"
		},
		{
			"bufferView":18,
			"componentType":5126,
			"count":2,
			"type":"VEC4"
		},
		{
			"bufferView":19,
			"componentType":5126,
			"count":2,
			"type":"VEC3"
		},
		{
			"bufferView":20,
			"componentType":5126,
			"count":2,
			"type":"VEC3"
		},
		{
			"bufferView":21,
			"componentType":5126,
			"count":2,
			"type":"VEC4"
		},
		{
			"bufferView":22,
			"componentType":5126,
			"count":2,
			"type":"VEC3"
		},
		{
			"bufferView":23,
			"componentType":5126,
			"count":2,
			"type":"VEC3"
		},
		{
			"bufferView":24,
			"componentType":5126,
			"count":15,
			"type":"VEC4"
		},
		{
			"bufferView":25,
			"componentType":5126,
			"count":2,
			"type":"VEC3"
		},
		{
			"bufferView":26,
			"componentType":5126,
			"count":2,
			"type":"VEC3"
		},
		{
			"bufferView":27,
			"componentType":5126,
			"count":15,
			"type":"VEC4"
		},
		{
			"bufferView":28,
			"componentType":5126,
			"count":2,
			"type":"VEC3"
		},
		{
			"bufferView":29,
			"componentType":5126,
			"count":2,
			"type":"VEC3"
		},
		{
			"bufferView":30,
			"componentType":5126,
			"count":2,
			"type":"VEC4"
		},
		{
			"bufferView":31,
			"componentType":5126,
			"count":2,
			"type":"VEC3"
		},
		{
			"bufferView":32,
			"componentType":5126,
			"count":2,
			"type":"VEC3"
		},
		{
			"bufferView":33,
			"componentType":5126,
			"count":15,
			"type":"VEC4"
		},
		{
			"bufferView":34,
			"componentType":5126,
			"count":2,
			"type":"VEC3"
		},
		{
			"bufferView":35,
			"componentType":5126,
			"count":2,
			"type":"VEC3"
		},
		{
			"bufferView":36,
			"componentType":5126,
			"count":15,
			"type":"VEC4"
		},
		{
			"bufferView":37,
			"componentType":5126,
			"count":2,
			"type":"VEC3"
		},
		{
			"bufferView":38,
			"componentType":5126,
			"count":2,
			"type":"VEC3"
		},
		{
			"bufferView":39,
			"componentType":5126,
			"count":2,
			"type":"VEC4"
		},
		{
			"bufferView":40,
			"componentType":5126,
			"count":2,
			"type":"VEC3"
		},
		{
			"bufferView":41,
			"componentType":5126,
			"count":2,
			"type":"VEC3"
		},
		{
			"bufferView":42,
			"componentType":5126,
			"count":15,
			"type":"VEC4"
		},
		{
			"bufferView":43,
			"componentType":5126,
			"count":2,
			"type":"VEC3"
		},
		{
			"bufferView":44,
			"componentType":5126,
			"count":2,
			"type":"VEC3"
		},
		{
			"bufferView":45,
			"componentType":5126,
			"count":15,
			"type":"VEC4"
		},
		{
			"bufferView":46,
			"componentType":5126,
			"count":2,
			"type":"VEC3"
		},
		{
			"bufferView":47,
			"componentType":5126,
			"count":2,
			"type":"VEC3"
		},
		{
			"bufferView":48,
			"componentType":5126,
			"count":2,
			"type":"VEC4"
		},
		{
			"bufferView":49,
			"componentType":5126,
			"count":2,
			"type":"VEC3"
		},
		{
			"bufferView":50,
			"componentType":5126,
			"count":2,
			"type":"VEC3"
		},
		{
			"bufferView":51,
			"componentType":5126,
			"count":15,
			"type":"VEC4"
		},
		{
			"bufferView":52,
			"componentType":5126,
			"count":2,
			"type":"VEC3"
		},
		{
			"bufferView":53,
			"componentType":5126,
			"count":2,
			"type":"VEC3"
		},
		{
			"bufferView":54,
			"componentType":5126,
			"count":15,
			"type":"VEC4"
		},
		{
			"bufferView":55,
			"componentType":5126,
			"count":2,
			"type":"VEC3"
		}
	],
	"bufferViews":[
		{
			"buffer":0,
			"byteLength":5568,
			"byteOffset":0,
			"target":34962
		},
		{
			"buffer":0,
			"byteLength":5568,
			"byteOffset":5568,
			"target":34962
		},
		{
			"buffer":0,
			"byteLength":3712,
			"byteOffset":11136,
			"target":34962
		},
		{
			"buffer":0,
			"byteLength":1856,
			"byteOffset":14848,
			"target":34962
		},
		{
			"buffer":0,
			"byteLength":7424,
			"byteOffset":16704,
			"target":34962
		},
		{
			"buffer":0,
			"byteLength":2352,
			"byteOffset":24128,
			"target":34963
		},
		{
			"buffer":0,
			"byteLength":832,
			"byteOffset":26480
		},
		{
			"buffer":0,
			"byteLength":23808,
			"byteOffset":27312,
			"target":34962
		},
		{
			"buffer":0,
			"byteLength":23808,
			"byteOffset":51120,
			"target":34962
		},
		{
			"buffer":0,
			"byteLength":15872,
			"byteOffset":74928,
			"target":34962
		},
		{
			"buffer":0,
			"byteLength":5760,
			"byteOffset":90800,
			"target":34963
		},
		{
			"buffer":0,
			"byteLength":23808,
			"byteOffset":96560,
			"target":34962
		},
		{
			"buffer":0,
			"byteLength":23808,
			"byteOffset":120368,
			"target":34962
		},
		{
			"buffer":0,
			"byteLength":15872,
			"byteOffset":144176,
			"target":34962
		},
		{
			"buffer":0,
			"byteLength":5760,
			"byteOffset":160048,
			"target":34963
		},
		{
			"buffer":0,
			"byteLength":60,
			"byteOffset":165808
		},
		{
			"buffer":0,
			"byteLength":180,
			"byteOffset":165868
		},
		{
			"buffer":0,
			"byteLength":8,
			"byteOffset":166048
		},
		{
			"buffer":0,
			"byteLength":32,
			"byteOffset":166056
		},
		{
			"buffer":0,
			"byteLength":24,
			"byteOffset":166088
		},
		{
			"buffer":0,
			"byteLength":24,
			"byteOffset":166112
		},
		{
			"buffer":0,
			"byteLength":32,
			"byteOffset":166136
		},
		{
			"buffer":0,
			"byteLength":24,
			"byteOffset":166168
		},
		{
			"buffer":0,
			"byteLength":24,
			"byteOffset":166192
		},
		{
			"buffer":0,
			"byteLength":240,
			"byteOffset":166216
		},
		{
			"buffer":0,
			"byteLength":24,
			"byteOffset":166456
		},
		{
			"buffer":0,
			"byteLength":24,
			"byteOffset":166480
		},
		{
			"buffer":0,
			"byteLength":240,
			"byteOffset":166504
		},
		{
			"buffer":0,
			"byteLength":24,
			"byteOffset":166744
		},
		{
			"buffer":0,
			"byteLength":24,
			"byteOffset":166768
		},
		{
			"buffer":0,
			"byteLength":32,
			"byteOffset":166792
		},
		{
			"buffer":0,
			"byteLength":24,
			"byteOffset":166824
		},
		{
			"buffer":0,
			"byteLength":24,
			"byteOffset":166848
		},
		{
			"buffer":0,
			"byteLength":240,
			"byteOffset":166872
		},
		{
			"buffer":0,
			"byteLength":24,
			"byteOffset":167112
		},
		{
			"buffer":0,
			"byteLength":24,
			"byteOffset":167136
		},
		{
			"buffer":0,
			"byteLength":240,
			"byteOffset":167160
		},
		{
			"buffer":0,
			"byteLength":24,
			"byteOffset":167400
		},
		{
			"buffer":0,
			"byteLength":24,
			"byteOffset":167424
		},
		{
			"buffer":0,
			"byteLength":32,
			"byteOffset":167448
		},
		{
			"buffer":0,
			"byteLength":24,
			"byteOffset":167480
		},
		{
			"buffer":0,
			"byteLength":24,
			"byteOffset":167504
		},
		{
			"buffer":0,
			"byteLength":240,
			"byteOffset":167528
		},
		{
			"buffer":0,
			"byteLength":24,
			"byteOffset":167768
		},
		{
			"buffer":0,
			"byteLength":24,
			"byteOffset":167792
		},
		{
			"buffer":0,
			"byteLength":240,
			"byteOffset":167816
		},
		{
			"buffer":0,
			"byteLength":24,
			"byteOffset":168056
		},
		{
			"buffer":0,
			"byteLength":24,
			"byteOffset":168080
		},
		{
			"buffer":0,
			"byteLength":32,
			"byteOffset":168104
		},
		{
			"buffer":0,
			"byteLength":24,
			"byteOffset":168136
		},
		{
			"buffer":0,
			"byteLength":24,
			"byteOffset":168160
		},
		{
			"buffer":0,
			"byteLength":240,
			"byteOffset":168184
		},
		{
			"buffer":0,
			"byteLength":24,
			"byteOffset":168424
		},
		{
			"buffer":0,
			"byteLength":24,
			"byteOffset":168448
		},
		{
			"buffer":0,
			"byteLength":240,
			"byteOffset":168472
		},
		{
			"buffer":0,
			"byteLength":24,
			"byteOffset":168712
		}
	],
	"buffers":[
		{
			"byteLength":168736,
			"uri":"Cubeman.bin"
		}
	]
}
